{
	"asset":{
		"version":"2.0",
		"generator":"Created using the official Cinema 4D glTF Exporter 1.000x284978"
	},
	"scenes":[{
		"nodes":[0]
	}],
	"nodes":[{
		"name":"Offshore_wind_turbine_dark",
		"translation":[0.0,
		0.0,
		0.0],
		"rotation":[0.0,
		0.0,
		0.0,
		-1.0],
		"scale":[1.0,
		1.0,
		1.0],
		"children":[1,
		2,
		3,
		6,
		7]
	},
	{
		"name":"Logo_R",
		"translation":[0.0,
		37.92375183105469,
		1.2313207387924195],
		"mesh":0,
		"rotation":[-0.7071067690849304,
		0.0,
		0.0,
		-0.7071067690849304],
		"scale":[1.0,
		1.0,
		1.0]
	},
	{
		"name":"Logo_L",
		"translation":[0.0,
		37.92375183105469,
		-1.2314399480819703],
		"mesh":1,
		"rotation":[-4.329780301713277e-17,
		-0.7071067690849304,
		0.7071067690849304,
		-4.329780301713277e-17],
		"scale":[1.0,
		1.0,
		1.0]
	},
	{
		"name":"body",
		"translation":[0.0,
		9.604000091552735,
		-1.591615734878888e-14],
		"rotation":[0.0,
		0.0,
		0.0,
		-1.0],
		"scale":[1.0,
		1.0,
		1.0],
		"children":[4,
		5]
	},
	{
		"name":"body-dark_grey",
		"translation":[0.0,
		0.0,
		0.0],
		"mesh":2,
		"rotation":[0.0,
		0.0,
		0.0,
		-1.0],
		"scale":[1.0,
		1.0,
		1.0]
	},
	{
		"name":"body-blue",
		"translation":[0.0,
		0.0,
		0.0],
		"mesh":3,
		"rotation":[0.0,
		0.0,
		0.0,
		-1.0],
		"scale":[1.0,
		1.0,
		1.0]
	},
	{
		"name":"p1",
		"translation":[2.8722076416015627,
		37.9028434753418,
		0.0009354824433103204],
		"mesh":4,
		"rotation":[0.0,
		0.0,
		0.0,
		-1.0],
		"scale":[1.0,
		1.0,
		1.0]
	},
	{
		"name":"p2",
		"translation":[2.8722076416015627,
		37.9028434753418,
		0.0009354824433103204],
		"mesh":5,
		"rotation":[0.0,
		0.0,
		0.0,
		-1.0],
		"scale":[1.0,
		1.0,
		1.0]
	}],
	"images":[{
		"uri":"data:image/png;base64,"
	}],
	"meshes":[{
		"name":"Logo_R",
		"primitives":[{
			"attributes":{
				"POSITION":1,
				"TEXCOORD_0":2
			},
			"indices":0,
			"material":0
		}]
	},
	{
		"name":"Logo_L",
		"primitives":[{
			"attributes":{
				"POSITION":4,
				"TEXCOORD_0":5
			},
			"indices":3,
			"material":0
		}]
	},
	{
		"name":"body-dark_grey",
		"primitives":[{
			"attributes":{
				"POSITION":7
			},
			"indices":6,
			"material":1
		}]
	},
	{
		"name":"body-blue",
		"primitives":[{
			"attributes":{
				"POSITION":9
			},
			"indices":8,
			"material":2
		}]
	},
	{
		"name":"p1",
		"primitives":[{
			"attributes":{
				"POSITION":11
			},
			"indices":10,
			"material":1
		}]
	},
	{
		"name":"p2",
		"primitives":[{
			"attributes":{
				"POSITION":15
			},
			"indices":14,
			"material":2
		}]
	}],
	"accessors":[{
		"bufferView":0,
		"type":"SCALAR",
		"componentType":5123,
		"count":12,
		"byteOffset":0,
		"min":[0],
		"max":[5]
	},
	{
		"bufferView":1,
		"type":"VEC3",
		"componentType":5126,
		"count":6,
		"byteOffset":0,
		"min":[-0.6874560117721558,
		-0.1138027161359787,
		-0.6874560117721558],
		"max":[0.6874560117721558,
		0.009767039678990841,
		0.6874560117721558]
	},
	{
		"bufferView":1,
		"type":"VEC2",
		"componentType":5126,
		"count":6,
		"byteOffset":12,
		"min":[0.029530324041843416,
		0.03852657228708267],
		"max":[0.97046959400177,
		0.9794658422470093]
	},
	{
		"bufferView":2,
		"type":"SCALAR",
		"componentType":5123,
		"count":12,
		"byteOffset":0,
		"min":[0],
		"max":[5]
	},
	{
		"bufferView":3,
		"type":"VEC3",
		"componentType":5126,
		"count":6,
		"byteOffset":0,
		"min":[-0.6874560117721558,
		-0.1138027161359787,
		-0.6874560117721558],
		"max":[0.6874560117721558,
		0.009767039678990841,
		0.6874560117721558]
	},
	{
		"bufferView":3,
		"type":"VEC2",
		"componentType":5126,
		"count":6,
		"byteOffset":12,
		"min":[0.029530324041843416,
		0.03852657228708267],
		"max":[0.97046959400177,
		0.9794658422470093]
	},
	{
		"bufferView":4,
		"type":"SCALAR",
		"componentType":5123,
		"count":228,
		"byteOffset":0,
		"min":[0],
		"max":[55]
	},
	{
		"bufferView":5,
		"type":"VEC3",
		"componentType":5126,
		"count":56,
		"byteOffset":0,
		"min":[-2.2716293334960939,
		-9.598610877990723,
		-1.934067964553833],
		"max":[2.2716293334960939,
		29.369197845458986,
		1.934067964553833]
	},
	{
		"bufferView":6,
		"type":"SCALAR",
		"componentType":5123,
		"count":288,
		"byteOffset":0,
		"min":[0],
		"max":[55]
	},
	{
		"bufferView":7,
		"type":"VEC3",
		"componentType":5126,
		"count":56,
		"byteOffset":0,
		"min":[-1.648247480392456,
		2.371333360671997,
		-1.9596635103225709],
		"max":[2.2710797786712648,
		6.547524929046631,
		1.9596635103225709]
	},
	{
		"bufferView":8,
		"type":"SCALAR",
		"componentType":5123,
		"count":144,
		"byteOffset":0,
		"min":[0],
		"max":[35]
	},
	{
		"bufferView":9,
		"type":"VEC3",
		"componentType":5126,
		"count":36,
		"byteOffset":0,
		"min":[-0.3541848063468933,
		-10.053535461425782,
		-6.9778242111206059],
		"max":[0.34175223112106326,
		8.430891036987305,
		10.54243278503418]
	},
	{
		"bufferView":10,
		"type":"SCALAR",
		"componentType":5126,
		"count":91,
		"byteOffset":0,
		"min":[0.0],
		"max":[3.0]
	},
	{
		"bufferView":10,
		"type":"VEC4",
		"componentType":5126,
		"count":91,
		"byteOffset":364,
		"min":[0.0,
		-2.2412592700383519e-17,
		0.0,
		-1.0],
		"max":[0.8660253882408142,
		0.0,
		2.2412592700383519e-17,
		-0.5]
	},
	{
		"bufferView":11,
		"type":"SCALAR",
		"componentType":5123,
		"count":171,
		"byteOffset":0,
		"min":[0],
		"max":[42]
	},
	{
		"bufferView":12,
		"type":"VEC3",
		"componentType":5126,
		"count":43,
		"byteOffset":0,
		"min":[-0.6610177755355835,
		-11.612349510192871,
		-7.959023952484131],
		"max":[0.7774879932403565,
		9.707327842712403,
		12.22572135925293]
	},
	{
		"bufferView":13,
		"type":"SCALAR",
		"componentType":5126,
		"count":91,
		"byteOffset":0,
		"min":[0.0],
		"max":[3.0]
	},
	{
		"bufferView":13,
		"type":"VEC4",
		"componentType":5126,
		"count":91,
		"byteOffset":364,
		"min":[0.0,
		-2.2412592700383519e-17,
		0.0,
		-1.0],
		"max":[0.8660253882408142,
		0.0,
		2.2412592700383519e-17,
		-0.5]
	}],
	"materials":[{
		"pbrMetallicRoughness":{
			"baseColorTexture":{
				"index":0
			},
			"baseColorFactor":[0.8,
			0.8,
			0.8,
			1.0],
			"metallicFactor":1.0,
			"roughnessFactor":1.0
		},
		"emissiveFactor":[0.0,
		0.0,
		0.0],
		"alphaMode":"BLEND",
		"doubleSided":true,
		"name":"logo_light"
	},
	{
		"pbrMetallicRoughness":{
			"baseColorFactor":[0.14901960784313726,
			0.14901960784313726,
			0.14901960784313726,
			1.0],
			"metallicFactor":0.0,
			"roughnessFactor":0.5
		},
		"emissiveFactor":[0.0,
		0.0,
		0.0],
		"alphaMode":"OPAQUE",
		"doubleSided":true,
		"name":"dark_grey"
	},
	{
		"pbrMetallicRoughness":{
			"baseColorFactor":[0.0,
			0.9686274509803923,
			1.0,
			1.0],
			"metallicFactor":0.0,
			"roughnessFactor":0.5
		},
		"emissiveFactor":[0.0,
		0.0,
		0.0],
		"alphaMode":"OPAQUE",
		"doubleSided":true,
		"name":"blue"
	}],
	"bufferViews":[{
		"buffer":0,
		"byteOffset":0,
		"byteLength":24,
		"target":34963
	},
	{
		"buffer":0,
		"byteOffset":24,
		"byteLength":120,
		"target":34962,
		"byteStride":20
	},
	{
		"buffer":1,
		"byteOffset":0,
		"byteLength":24,
		"target":34963
	},
	{
		"buffer":1,
		"byteOffset":24,
		"byteLength":120,
		"target":34962,
		"byteStride":20
	},
	{
		"buffer":2,
		"byteOffset":0,
		"byteLength":456,
		"target":34963
	},
	{
		"buffer":2,
		"byteOffset":456,
		"byteLength":672,
		"target":34962
	},
	{
		"buffer":3,
		"byteOffset":0,
		"byteLength":576,
		"target":34963
	},
	{
		"buffer":3,
		"byteOffset":576,
		"byteLength":672,
		"target":34962
	},
	{
		"buffer":4,
		"byteOffset":0,
		"byteLength":288,
		"target":34963
	},
	{
		"buffer":4,
		"byteOffset":288,
		"byteLength":432,
		"target":34962
	},
	{
		"buffer":5,
		"byteOffset":0,
		"byteLength":1820
	},
	{
		"buffer":6,
		"byteOffset":0,
		"byteLength":342,
		"target":34963
	},
	{
		"buffer":6,
		"byteOffset":344,
		"byteLength":516,
		"target":34962
	},
	{
		"buffer":7,
		"byteOffset":0,
		"byteLength":1820
	}],
	"buffers":[{
		"uri":"data:application/octet-stream;base64,",
		"byteLength":144
	},
	{
		"uri":"data:application/octet-stream;base64,",
		"byteLength":144
	},
	{
		"uri":"data:application/octet-stream;base64,",
		"byteLength":1128
	},
	{
		"uri":"data:application/octet-stream;base64,",
		"byteLength":1248
	},
	{
		"uri":"data:application/octet-stream;base64,",
		"byteLength":720
	},
	{
		"uri":"data:application/octet-stream;base64,",
		"byteLength":1820
	},
	{
		"uri":"data:application/octet-stream;base64,",
		"byteLength":860
	},
	{
		"uri":"data:application/octet-stream;base64,",
		"byteLength":1820
	}],
	"samplers":[{
		"magFilter":9729,
		"minFilter":9729,
		"wrapS":10497,
		"wrapT":10497
	}],
	"textures":[{
		"sampler":0,
		"source":0
	}],
	"animations":[{
		"samplers":[{
			"input":12,
			"interpolation":"LINEAR",
			"output":13
		},
		{
			"input":16,
			"interpolation":"LINEAR",
			"output":17
		}],
		"channels":[{
			"sampler":0,
			"target":{
				"node":6,
				"path":"rotation"
			}
		},
		{
			"sampler":1,
			"target":{
				"node":7,
				"path":"rotation"
			}
		}]
	}]
}